<?xml version="1.0" ?><!DOCTYPE svg  PUBLIC '-//W3C//DTD SVG 1.1//EN'  'http://www.w3.org/Graphics/SVG/1.1/DTD/svg11.dtd'><svg width="512px" height="512px" viewBox="0 0 512 512" enable-background="new 0 0 512 512" id="Layer_1" version="1.1" xml:space="preserve" xmlns="http://www.w3.org/2000/svg" xmlns:xlink="http://www.w3.org/1999/xlink"><g><g><path d="M452.08,413.67H59.92c-13.409,0-24.318-11.333-24.318-25.264v-23.744c0-13.931,10.909-25.264,24.318-25.264h138.722    c5.523,0,10,4.478,10,10v4.936c0,1.692,1.1,2.871,2.087,2.871h97.103c0.987,0,2.087-1.179,2.087-2.871v-4.936    c0-5.522,4.477-10,10-10h132.16c13.409,0,24.318,11.333,24.318,25.264v23.744C476.398,402.337,465.489,413.67,452.08,413.67z     M59.92,359.398c-2.381,0-4.318,2.361-4.318,5.264v23.744c0,2.854,1.978,5.264,4.318,5.264H452.08c2.341,0,4.318-2.41,4.318-5.264    v-23.744c0-2.902-1.937-5.264-4.318-5.264H329.374c-2.231,10.183-11.042,17.807-21.541,17.807H210.73    c-10.499,0-19.311-7.624-21.542-17.807H59.92z"/></g><g><path d="M307.833,374.459H210.73c-11.33,0-20.415-9.706-21.88-22.695H87.161c-5.523,0-10-4.478-10-10V108.33    c0-5.522,4.477-10,10-10h337.677c5.523,0,10,4.478,10,10v233.434c0,5.522-4.477,10-10,10h-95.125    C328.247,364.753,319.163,374.459,307.833,374.459z M210.936,354.459h96.69c0.748-0.468,2.293-2.746,2.293-6.406v-6.289    c0-5.522,4.477-10,10-10h94.918V118.33H97.161v213.434h101.481c5.523,0,10,4.478,10,10v6.289    C208.643,351.713,210.188,353.991,210.936,354.459z"/></g><g><path d="M181.167,172.996h-53.333c-5.523,0-10-4.478-10-10s4.477-10,10-10h53.333c5.523,0,10,4.478,10,10    S186.689,172.996,181.167,172.996z"/></g><g><path d="M181.167,206.162h-53.333c-5.523,0-10-4.478-10-10s4.477-10,10-10h53.333c5.523,0,10,4.478,10,10    S186.689,206.162,181.167,206.162z"/></g><g><path d="M181.167,239.328h-53.333c-5.523,0-10-4.478-10-10s4.477-10,10-10h53.333c5.523,0,10,4.478,10,10    S186.689,239.328,181.167,239.328z"/></g><g><path d="M181.167,272.494h-53.333c-5.523,0-10-4.478-10-10s4.477-10,10-10h53.333c5.523,0,10,4.478,10,10    S186.689,272.494,181.167,272.494z"/></g><g><path d="M181.167,305.662h-53.333c-5.523,0-10-4.478-10-10s4.477-10,10-10h53.333c5.523,0,10,4.478,10,10    S186.689,305.662,181.167,305.662z"/></g><g><path d="M277.167,239.328h-53.333c-5.523,0-10-4.478-10-10s4.477-10,10-10h53.333c5.523,0,10,4.478,10,10    S282.689,239.328,277.167,239.328z"/></g><g><path d="M277.167,272.494h-53.333c-5.523,0-10-4.478-10-10s4.477-10,10-10h53.333c5.523,0,10,4.478,10,10    S282.689,272.494,277.167,272.494z"/></g><g><path d="M277.167,305.662h-53.333c-5.523,0-10-4.478-10-10s4.477-10,10-10h53.333c5.523,0,10,4.478,10,10    S282.689,305.662,277.167,305.662z"/></g><g><path d="M368.5,272.494h-53.333c-5.523,0-10-4.478-10-10s4.477-10,10-10H368.5c5.523,0,10,4.478,10,10    S374.023,272.494,368.5,272.494z"/></g><g><path d="M368.5,305.662h-53.333c-5.523,0-10-4.478-10-10s4.477-10,10-10H368.5c5.523,0,10,4.478,10,10    S374.023,305.662,368.5,305.662z"/></g></g></svg>